<svg width="186" height="40" viewBox="0 0 186 40" fill="none" xmlns="http://www.w3.org/2000/svg">
<path d="M21.8141 0V8.48921C27.3037 9.35252 31.6377 14.1007 31.6377 19.8561C31.6377 26.1871 26.4369 31.3669 20.0805 31.3669C14.013 31.3669 9.10124 26.7626 8.52339 20.8633H0C0.577857 31.5108 9.24571 40 20.0805 40C31.2043 40 40.161 31.0791 40.161 20C40.161 9.4964 32.0711 1.00719 21.8141 0Z" fill="white"/>
<path d="M19.5027 0H0V8.34532H19.5027V0Z" fill="white"/>
<path d="M15.0243 10.5036H0V18.9928H15.0243V10.5036Z" fill="white"/>
<path d="M57.627 12.7812V27H54.707V12.7812H57.627ZM62.002 12.7812V15.0762H50.4004V12.7812H62.002ZM65.775 18.7383V27H62.9625V16.4336H65.609L65.775 18.7383ZM68.9586 16.3652L68.9098 18.9727C68.773 18.9531 68.607 18.9368 68.4117 18.9238C68.2229 18.9043 68.0504 18.8945 67.8941 18.8945C67.497 18.8945 67.152 18.9466 66.859 19.0508C66.5725 19.1484 66.3316 19.2949 66.1363 19.4902C65.9475 19.6855 65.8043 19.9232 65.7066 20.2031C65.6155 20.4831 65.5634 20.8021 65.5504 21.1602L64.984 20.9844C64.984 20.3008 65.0523 19.6725 65.1891 19.0996C65.3258 18.5202 65.5243 18.0156 65.7848 17.5859C66.0517 17.1562 66.3772 16.8242 66.7613 16.5898C67.1454 16.3555 67.5849 16.2383 68.0797 16.2383C68.2359 16.2383 68.3954 16.2513 68.5582 16.2773C68.721 16.2969 68.8544 16.3262 68.9586 16.3652ZM75.8078 24.6172V19.9102C75.8078 19.5716 75.7525 19.2819 75.6418 19.041C75.5311 18.7936 75.3586 18.6016 75.1242 18.4648C74.8964 18.3281 74.6001 18.2598 74.2355 18.2598C73.923 18.2598 73.6529 18.3151 73.425 18.4258C73.1971 18.5299 73.0214 18.6829 72.8977 18.8848C72.774 19.0801 72.7121 19.3112 72.7121 19.5781H69.8996C69.8996 19.1289 70.0038 18.7025 70.2121 18.2988C70.4204 17.8952 70.7232 17.5404 71.1203 17.2344C71.5174 16.9219 71.9895 16.6777 72.5363 16.502C73.0897 16.3262 73.7082 16.2383 74.3918 16.2383C75.2121 16.2383 75.9413 16.375 76.5793 16.6484C77.2173 16.9219 77.7186 17.332 78.0832 17.8789C78.4543 18.4258 78.6398 19.1094 78.6398 19.9297V24.4512C78.6398 25.0306 78.6757 25.5059 78.7473 25.877C78.8189 26.2415 78.923 26.5605 79.0598 26.834V27H76.218C76.0812 26.7135 75.9771 26.3555 75.9055 25.9258C75.8404 25.4896 75.8078 25.0534 75.8078 24.6172ZM76.1789 20.5645L76.1984 22.1562H74.6262C74.2551 22.1562 73.9328 22.1986 73.6594 22.2832C73.3859 22.3678 73.1613 22.4883 72.9855 22.6445C72.8098 22.7943 72.6796 22.9701 72.5949 23.1719C72.5168 23.3737 72.4777 23.5951 72.4777 23.8359C72.4777 24.0768 72.5331 24.2949 72.6437 24.4902C72.7544 24.679 72.9139 24.8288 73.1223 24.9395C73.3306 25.0436 73.5747 25.0957 73.8547 25.0957C74.2779 25.0957 74.6457 25.0111 74.9582 24.8418C75.2707 24.6725 75.5116 24.4642 75.6809 24.2168C75.8566 23.9694 75.9478 23.735 75.9543 23.5137L76.6965 24.7051C76.5923 24.972 76.4491 25.2487 76.2668 25.5352C76.091 25.8216 75.8664 26.0918 75.593 26.3457C75.3195 26.5931 74.9908 26.7982 74.6066 26.9609C74.2225 27.1172 73.7668 27.1953 73.2395 27.1953C72.5689 27.1953 71.9602 27.0618 71.4133 26.7949C70.8729 26.5215 70.4432 26.1471 70.1242 25.6719C69.8117 25.1901 69.6555 24.6432 69.6555 24.0312C69.6555 23.4779 69.7596 22.9863 69.968 22.5566C70.1763 22.127 70.4823 21.7656 70.8859 21.4727C71.2961 21.1732 71.8072 20.9486 72.4191 20.7988C73.0311 20.6426 73.7408 20.5645 74.548 20.5645H76.1789ZM83.7117 18.6895V27H80.8992V16.4336H83.5359L83.7117 18.6895ZM83.3016 21.3457H82.5398C82.5398 20.5645 82.6408 19.8613 82.8426 19.2363C83.0444 18.6048 83.3276 18.0677 83.6922 17.625C84.0568 17.1758 84.4897 16.834 84.991 16.5996C85.4988 16.3587 86.0652 16.2383 86.6902 16.2383C87.185 16.2383 87.6375 16.3099 88.0477 16.4531C88.4578 16.5964 88.8094 16.8242 89.1023 17.1367C89.4018 17.4492 89.6297 17.8626 89.7859 18.377C89.9487 18.8913 90.0301 19.5195 90.0301 20.2617V27H87.198V20.252C87.198 19.7832 87.1329 19.4186 87.0027 19.1582C86.8725 18.8978 86.6805 18.7155 86.4266 18.6113C86.1792 18.5007 85.8732 18.4453 85.5086 18.4453C85.131 18.4453 84.8022 18.5202 84.5223 18.6699C84.2488 18.8197 84.021 19.028 83.8387 19.2949C83.6629 19.5553 83.5294 19.8613 83.4383 20.2129C83.3471 20.5645 83.3016 20.9421 83.3016 21.3457ZM98.0316 24.0801C98.0316 23.8783 97.973 23.696 97.8559 23.5332C97.7387 23.3704 97.5206 23.2207 97.2016 23.084C96.8891 22.9408 96.4366 22.8105 95.8441 22.6934C95.3103 22.5762 94.8122 22.4297 94.35 22.2539C93.8943 22.0716 93.4971 21.8535 93.1586 21.5996C92.8266 21.3457 92.5661 21.0462 92.3773 20.7012C92.1885 20.3496 92.0941 19.9492 92.0941 19.5C92.0941 19.0573 92.1885 18.6406 92.3773 18.25C92.5727 17.8594 92.8493 17.5143 93.2074 17.2148C93.572 16.9089 94.0147 16.6712 94.5355 16.502C95.0629 16.3262 95.6553 16.2383 96.3129 16.2383C97.2309 16.2383 98.0186 16.3848 98.6762 16.6777C99.3402 16.9707 99.848 17.3743 100.2 17.8887C100.558 18.3965 100.737 18.9759 100.737 19.627H97.9242C97.9242 19.3535 97.8656 19.1094 97.7484 18.8945C97.6378 18.6732 97.462 18.5007 97.2211 18.377C96.9867 18.2467 96.6807 18.1816 96.3031 18.1816C95.9906 18.1816 95.7204 18.237 95.4926 18.3477C95.2647 18.4518 95.0889 18.5951 94.9652 18.7773C94.848 18.9531 94.7895 19.1484 94.7895 19.3633C94.7895 19.526 94.822 19.6725 94.8871 19.8027C94.9587 19.9264 95.0727 20.0404 95.2289 20.1445C95.3852 20.2487 95.587 20.3464 95.8344 20.4375C96.0883 20.5221 96.4008 20.6003 96.7719 20.6719C97.5336 20.8281 98.2139 21.0332 98.8129 21.2871C99.4118 21.5345 99.8871 21.873 100.239 22.3027C100.59 22.7259 100.766 23.2826 100.766 23.9727C100.766 24.4414 100.662 24.8711 100.454 25.2617C100.245 25.6523 99.9457 25.9941 99.5551 26.2871C99.1645 26.5736 98.6957 26.7982 98.1488 26.9609C97.6085 27.1172 96.9997 27.1953 96.3227 27.1953C95.3396 27.1953 94.5062 27.0195 93.8227 26.668C93.1456 26.3164 92.6312 25.8704 92.2797 25.3301C91.9346 24.7832 91.7621 24.2233 91.7621 23.6504H94.4281C94.4411 24.0345 94.5388 24.3438 94.7211 24.5781C94.9099 24.8125 95.1475 24.9818 95.434 25.0859C95.727 25.1901 96.0427 25.2422 96.3812 25.2422C96.7458 25.2422 97.0486 25.1934 97.2895 25.0957C97.5303 24.9915 97.7126 24.8548 97.8363 24.6855C97.9665 24.5098 98.0316 24.3079 98.0316 24.0801ZM105.555 18.4648V31.0625H102.742V16.4336H105.35L105.555 18.4648ZM112.244 21.5996V21.8047C112.244 22.5729 112.153 23.2858 111.971 23.9434C111.795 24.6009 111.535 25.1738 111.189 25.6621C110.844 26.1439 110.415 26.5215 109.9 26.7949C109.393 27.0618 108.807 27.1953 108.143 27.1953C107.498 27.1953 106.938 27.0651 106.463 26.8047C105.988 26.5443 105.587 26.1797 105.262 25.7109C104.943 25.2357 104.686 24.6855 104.49 24.0605C104.295 23.4355 104.145 22.765 104.041 22.0488V21.5117C104.145 20.7435 104.295 20.0404 104.49 19.4023C104.686 18.7578 104.943 18.2012 105.262 17.7324C105.587 17.2572 105.984 16.8893 106.453 16.6289C106.928 16.3685 107.485 16.2383 108.123 16.2383C108.794 16.2383 109.383 16.3652 109.891 16.6191C110.405 16.873 110.835 17.2376 111.18 17.7129C111.531 18.1882 111.795 18.7546 111.971 19.4121C112.153 20.0697 112.244 20.7988 112.244 21.5996ZM109.422 21.8047V21.5996C109.422 21.1504 109.383 20.737 109.305 20.3594C109.233 19.9753 109.116 19.64 108.953 19.3535C108.797 19.0671 108.589 18.8457 108.328 18.6895C108.074 18.5267 107.765 18.4453 107.4 18.4453C107.016 18.4453 106.688 18.5072 106.414 18.6309C106.147 18.7546 105.929 18.9336 105.76 19.168C105.59 19.4023 105.464 19.6823 105.379 20.0078C105.294 20.3333 105.242 20.7012 105.223 21.1113V22.4688C105.255 22.9505 105.346 23.3835 105.496 23.7676C105.646 24.1452 105.877 24.4447 106.189 24.666C106.502 24.8874 106.912 24.998 107.42 24.998C107.791 24.998 108.104 24.9167 108.357 24.7539C108.611 24.5846 108.816 24.3535 108.973 24.0605C109.135 23.7676 109.249 23.429 109.314 23.0449C109.386 22.6608 109.422 22.2474 109.422 21.8047ZM113.693 21.8242V21.6191C113.693 20.8444 113.804 20.1315 114.025 19.4805C114.246 18.8229 114.569 18.2533 114.992 17.7715C115.415 17.2897 115.936 16.9154 116.554 16.6484C117.173 16.375 117.882 16.2383 118.683 16.2383C119.484 16.2383 120.197 16.375 120.822 16.6484C121.447 16.9154 121.971 17.2897 122.394 17.7715C122.824 18.2533 123.149 18.8229 123.371 19.4805C123.592 20.1315 123.703 20.8444 123.703 21.6191V21.8242C123.703 22.5924 123.592 23.3053 123.371 23.9629C123.149 24.6139 122.824 25.1836 122.394 25.6719C121.971 26.1536 121.45 26.528 120.832 26.7949C120.213 27.0618 119.504 27.1953 118.703 27.1953C117.902 27.1953 117.189 27.0618 116.564 26.7949C115.946 26.528 115.421 26.1536 114.992 25.6719C114.569 25.1836 114.246 24.6139 114.025 23.9629C113.804 23.3053 113.693 22.5924 113.693 21.8242ZM116.505 21.6191V21.8242C116.505 22.2669 116.545 22.6803 116.623 23.0645C116.701 23.4486 116.824 23.7871 116.994 24.0801C117.17 24.3665 117.397 24.5911 117.677 24.7539C117.957 24.9167 118.299 24.998 118.703 24.998C119.093 24.998 119.429 24.9167 119.709 24.7539C119.989 24.5911 120.213 24.3665 120.382 24.0801C120.552 23.7871 120.675 23.4486 120.754 23.0645C120.838 22.6803 120.88 22.2669 120.88 21.8242V21.6191C120.88 21.1895 120.838 20.7858 120.754 20.4082C120.675 20.0241 120.548 19.6855 120.373 19.3926C120.203 19.0931 119.979 18.8587 119.699 18.6895C119.419 18.5202 119.08 18.4355 118.683 18.4355C118.286 18.4355 117.948 18.5202 117.668 18.6895C117.394 18.8587 117.17 19.0931 116.994 19.3926C116.824 19.6855 116.701 20.0241 116.623 20.4082C116.545 20.7858 116.505 21.1895 116.505 21.6191ZM128.394 18.7383V27H125.581V16.4336H128.228L128.394 18.7383ZM131.577 16.3652L131.529 18.9727C131.392 18.9531 131.226 18.9368 131.03 18.9238C130.842 18.9043 130.669 18.8945 130.513 18.8945C130.116 18.8945 129.771 18.9466 129.478 19.0508C129.191 19.1484 128.95 19.2949 128.755 19.4902C128.566 19.6855 128.423 19.9232 128.325 20.2031C128.234 20.4831 128.182 20.8021 128.169 21.1602L127.603 20.9844C127.603 20.3008 127.671 19.6725 127.808 19.0996C127.945 18.5202 128.143 18.0156 128.404 17.5859C128.67 17.1562 128.996 16.8242 129.38 16.5898C129.764 16.3555 130.204 16.2383 130.698 16.2383C130.855 16.2383 131.014 16.2513 131.177 16.2773C131.34 16.2969 131.473 16.3262 131.577 16.3652ZM138.72 16.4336V18.4258H132.567V16.4336H138.72ZM134.091 13.8262H136.903V23.8164C136.903 24.1224 136.942 24.3568 137.02 24.5195C137.105 24.6823 137.229 24.7962 137.391 24.8613C137.554 24.9199 137.759 24.9492 138.007 24.9492C138.182 24.9492 138.339 24.9427 138.475 24.9297C138.619 24.9102 138.739 24.8906 138.837 24.8711L138.846 26.9414C138.606 27.0195 138.345 27.0814 138.065 27.127C137.785 27.1725 137.476 27.1953 137.137 27.1953C136.519 27.1953 135.979 27.0944 135.516 26.8926C135.061 26.6842 134.709 26.3522 134.462 25.8965C134.214 25.4408 134.091 24.8418 134.091 24.0996V13.8262ZM146.174 24.6172V19.9102C146.174 19.5716 146.119 19.2819 146.008 19.041C145.898 18.7936 145.725 18.6016 145.491 18.4648C145.263 18.3281 144.967 18.2598 144.602 18.2598C144.289 18.2598 144.019 18.3151 143.791 18.4258C143.564 18.5299 143.388 18.6829 143.264 18.8848C143.14 19.0801 143.079 19.3112 143.079 19.5781H140.266C140.266 19.1289 140.37 18.7025 140.579 18.2988C140.787 17.8952 141.09 17.5404 141.487 17.2344C141.884 16.9219 142.356 16.6777 142.903 16.502C143.456 16.3262 144.075 16.2383 144.758 16.2383C145.579 16.2383 146.308 16.375 146.946 16.6484C147.584 16.9219 148.085 17.332 148.45 17.8789C148.821 18.4258 149.006 19.1094 149.006 19.9297V24.4512C149.006 25.0306 149.042 25.5059 149.114 25.877C149.185 26.2415 149.289 26.5605 149.426 26.834V27H146.584C146.448 26.7135 146.343 26.3555 146.272 25.9258C146.207 25.4896 146.174 25.0534 146.174 24.6172ZM146.545 20.5645L146.565 22.1562H144.993C144.621 22.1562 144.299 22.1986 144.026 22.2832C143.752 22.3678 143.528 22.4883 143.352 22.6445C143.176 22.7943 143.046 22.9701 142.961 23.1719C142.883 23.3737 142.844 23.5951 142.844 23.8359C142.844 24.0768 142.899 24.2949 143.01 24.4902C143.121 24.679 143.28 24.8288 143.489 24.9395C143.697 25.0436 143.941 25.0957 144.221 25.0957C144.644 25.0957 145.012 25.0111 145.325 24.8418C145.637 24.6725 145.878 24.4642 146.047 24.2168C146.223 23.9694 146.314 23.735 146.321 23.5137L147.063 24.7051C146.959 24.972 146.815 25.2487 146.633 25.5352C146.457 25.8216 146.233 26.0918 145.959 26.3457C145.686 26.5931 145.357 26.7982 144.973 26.9609C144.589 27.1172 144.133 27.1953 143.606 27.1953C142.935 27.1953 142.327 27.0618 141.78 26.7949C141.239 26.5215 140.81 26.1471 140.491 25.6719C140.178 25.1901 140.022 24.6432 140.022 24.0312C140.022 23.4779 140.126 22.9863 140.334 22.5566C140.543 22.127 140.849 21.7656 141.252 21.4727C141.662 21.1732 142.174 20.9486 142.786 20.7988C143.398 20.6426 144.107 20.5645 144.914 20.5645H146.545ZM156.5 16.4336V18.4258H150.348V16.4336H156.5ZM151.871 13.8262H154.684V23.8164C154.684 24.1224 154.723 24.3568 154.801 24.5195C154.885 24.6823 155.009 24.7962 155.172 24.8613C155.335 24.9199 155.54 24.9492 155.787 24.9492C155.963 24.9492 156.119 24.9427 156.256 24.9297C156.399 24.9102 156.52 24.8906 156.617 24.8711L156.627 26.9414C156.386 27.0195 156.126 27.0814 155.846 27.127C155.566 27.1725 155.257 27.1953 154.918 27.1953C154.299 27.1953 153.759 27.0944 153.297 26.8926C152.841 26.6842 152.49 26.3522 152.242 25.8965C151.995 25.4408 151.871 24.8418 151.871 24.0996V13.8262ZM161.22 16.4336V27H158.398V16.4336H161.22ZM158.222 13.6797C158.222 13.2695 158.365 12.931 158.652 12.6641C158.938 12.3971 159.323 12.2637 159.804 12.2637C160.28 12.2637 160.66 12.3971 160.947 12.6641C161.24 12.931 161.386 13.2695 161.386 13.6797C161.386 14.0898 161.24 14.4284 160.947 14.6953C160.66 14.9622 160.28 15.0957 159.804 15.0957C159.323 15.0957 158.938 14.9622 158.652 14.6953C158.365 14.4284 158.222 14.0898 158.222 13.6797ZM163.245 21.8242V21.6191C163.245 20.8444 163.356 20.1315 163.577 19.4805C163.799 18.8229 164.121 18.2533 164.544 17.7715C164.967 17.2897 165.488 16.9154 166.107 16.6484C166.725 16.375 167.435 16.2383 168.236 16.2383C169.036 16.2383 169.749 16.375 170.374 16.6484C170.999 16.9154 171.523 17.2897 171.946 17.7715C172.376 18.2533 172.702 18.8229 172.923 19.4805C173.144 20.1315 173.255 20.8444 173.255 21.6191V21.8242C173.255 22.5924 173.144 23.3053 172.923 23.9629C172.702 24.6139 172.376 25.1836 171.946 25.6719C171.523 26.1536 171.002 26.528 170.384 26.7949C169.765 27.0618 169.056 27.1953 168.255 27.1953C167.454 27.1953 166.741 27.0618 166.116 26.7949C165.498 26.528 164.974 26.1536 164.544 25.6719C164.121 25.1836 163.799 24.6139 163.577 23.9629C163.356 23.3053 163.245 22.5924 163.245 21.8242ZM166.058 21.6191V21.8242C166.058 22.2669 166.097 22.6803 166.175 23.0645C166.253 23.4486 166.377 23.7871 166.546 24.0801C166.722 24.3665 166.95 24.5911 167.23 24.7539C167.51 24.9167 167.851 24.998 168.255 24.998C168.646 24.998 168.981 24.9167 169.261 24.7539C169.541 24.5911 169.765 24.3665 169.935 24.0801C170.104 23.7871 170.228 23.4486 170.306 23.0645C170.39 22.6803 170.433 22.2669 170.433 21.8242V21.6191C170.433 21.1895 170.39 20.7858 170.306 20.4082C170.228 20.0241 170.101 19.6855 169.925 19.3926C169.756 19.0931 169.531 18.8587 169.251 18.6895C168.971 18.5202 168.633 18.4355 168.236 18.4355C167.838 18.4355 167.5 18.5202 167.22 18.6895C166.946 18.8587 166.722 19.0931 166.546 19.3926C166.377 19.6855 166.253 20.0241 166.175 20.4082C166.097 20.7858 166.058 21.1895 166.058 21.6191ZM177.887 18.6895V27H175.075V16.4336H177.712L177.887 18.6895ZM177.477 21.3457H176.716C176.716 20.5645 176.817 19.8613 177.018 19.2363C177.22 18.6048 177.503 18.0677 177.868 17.625C178.233 17.1758 178.665 16.834 179.167 16.5996C179.675 16.3587 180.241 16.2383 180.866 16.2383C181.361 16.2383 181.813 16.3099 182.223 16.4531C182.634 16.5964 182.985 16.8242 183.278 17.1367C183.578 17.4492 183.805 17.8626 183.962 18.377C184.124 18.8913 184.206 19.5195 184.206 20.2617V27H181.374V20.252C181.374 19.7832 181.309 19.4186 181.179 19.1582C181.048 18.8978 180.856 18.7155 180.602 18.6113C180.355 18.5007 180.049 18.4453 179.684 18.4453C179.307 18.4453 178.978 18.5202 178.698 18.6699C178.425 18.8197 178.197 19.028 178.014 19.2949C177.839 19.5553 177.705 19.8613 177.614 20.2129C177.523 20.5645 177.477 20.9421 177.477 21.3457Z" fill="white"/>
</svg>
